<svg width="18" height="32" viewBox="0 0 18 32" fill="none" xmlns="http://www.w3.org/2000/svg">
<path d="M1.98089 0C2.55506 0 3.01439 0.172972 3.3589 0.518916L17.3974 14.5296C17.7993 14.9909 18.0002 15.481 18.0002 15.9999C18.0002 16.5188 17.7993 16.9801 17.3974 17.3837L3.3589 31.3944C2.95698 31.798 2.49764 31.9998 1.98089 31.9998C1.46413 31.9998 1.0048 31.798 0.602879 31.3944C0.20096 30.9908 0 30.5296 0 30.0106C0 29.4917 0.20096 29.0305 0.602879 28.6269L13.1772 15.9999L0.602879 3.37295C0.20096 2.96935 0 2.47926 0 1.90269C0 1.32612 0.186605 0.86486 0.559816 0.518916C0.933027 0.172972 1.40672 0 1.98089 0Z" fill="black"/>
</svg>
